<?xml version="1.0" encoding="utf-8"?>
<!-- Generator: Adobe Illustrator 21.0.0, SVG Export Plug-In . SVG Version: 6.00 Build 0)  -->
<svg version="1.1" id="圖層_1" xmlns="http://www.w3.org/2000/svg" xmlns:xlink="http://www.w3.org/1999/xlink" x="0px" y="0px"
	 viewBox="0 0 39 39" style="enable-background:new 0 0 39 39;" xml:space="preserve">
<style type="text/css">
	.st0{fill:#FFFFFF;}
</style>
<title>搜尋 icon</title>
<desc>Created with Sketch.</desc>
<path id="搜尋-icon" class="st0" d="M23.4,21.8h-0.8l-0.3-0.3c1-1.2,1.6-2.7,1.6-4.4c0-3.7-3-6.7-6.7-6.7c-3.7,0-6.7,3-6.7,6.7
	s3,6.7,6.7,6.7c1.7,0,3.2-0.6,4.4-1.6l0.3,0.3v0.8l5.2,5.1l1.5-1.5L23.4,21.8L23.4,21.8z M17.2,21.8c-2.6,0-4.6-2.1-4.6-4.6
	c0-2.6,2.1-4.6,4.6-4.6c2.6,0,4.6,2.1,4.6,4.6C21.8,19.7,19.7,21.8,17.2,21.8L17.2,21.8z"/>
</svg>
