<?xml version="1.0" encoding="UTF-8"?>
<svg width="18px" height="18px" viewBox="0 0 18 18" version="1.1" xmlns="http://www.w3.org/2000/svg" xmlns:xlink="http://www.w3.org/1999/xlink">
    <!-- Generator: Sketch 48.2 (47327) - http://www.bohemiancoding.com/sketch -->
    <title>Icon</title>
    <desc>Created with Sketch.</desc>
    <defs></defs>
    <g id="課表｜願望清單" stroke="none" stroke-width="1" fill="none" fill-rule="evenodd" transform="translate(-91.000000, -362.000000)">
        <g id="左側｜快速搜尋" transform="translate(65.000000, 296.000000)">
            <g id="Icon" transform="translate(26.000000, 66.000000)">
                <path d="M16,0 L2,0 C0.9,0 0,0.9 0,2 L0,16 C0,17.1 0.9,18 2,18 L16,18 C17.1,18 18,17.1 18,16 L18,2 C18,0.9 17.1,0 16,0" id="Fill" fill="#1A6CBD"></path>
                <path d="M4,14 L9,14 L9,12 L4,12 L4,14 L4,14 Z M4,4 L4,6 L14,6 L14,4 L4,4 L4,4 Z M4,10 L11,10 L11,8 L4,8 L4,10 L4,10 Z" id="Shape" fill="#FFFFFF"></path>
            </g>
        </g>
    </g>
</svg>