<?xml version="1.0" encoding="utf-8"?>
<!-- Generator: Adobe Illustrator 21.0.0, SVG Export Plug-In . SVG Version: 6.00 Build 0)  -->
<svg version="1.1" id="圖層_1" xmlns="http://www.w3.org/2000/svg" xmlns:xlink="http://www.w3.org/1999/xlink" x="0px" y="0px"
	 viewBox="0 0 200 46" style="enable-background:new 0 0 200 46;" xml:space="preserve">
<style type="text/css">
	.st0{fill:#FFFFFF;}
	.st1{font-family:'GenJyuuGothic-Bold';}
	.st2{font-size:22px;}
</style>
<title>LOGO</title>
<desc>Created with Sketch.</desc>
<g id="LOGO" transform="translate(61.000000, 25.000000)">
	<text transform="matrix(1 0 0 1 18.2708 6.2949)" class="st0 st1 st2">NCKU HUB</text>
	<path id="Fill-4" class="st0" d="M1.2-3.9v7.2c0,1.6-1.3,2.8-3,2.8c-1.6,0-3-1.3-3-2.8v-7.2c0-1.6,1.3-2.8,3-2.8
		C-0.1-6.7,1.2-5.4,1.2-3.9"/>
	<path id="Fill-1" class="st0" d="M-13.8-1.9V9.6c0,1.5-1.3,2.7-2.9,2.7s-2.9-1.2-2.9-2.7V-1.9c0-1.5,1.3-2.7,2.9-2.7
		S-13.8-3.4-13.8-1.9"/>
	<path id="Fill-9" class="st0" d="M-28.9-10.9V0.5c0,1.5-1.3,2.7-2.9,2.7c-1.6,0-2.9-1.2-2.9-2.7v-11.4c0-1.5,1.3-2.7,2.9-2.7
		C-30.2-13.6-28.9-12.4-28.9-10.9"/>
	<path id="Fill-4_1_" class="st0" d="M-43.8-3.9v7.2c0,1.6-1.3,2.8-3,2.8s-3-1.3-3-2.8v-7.2c0-1.6,1.3-2.8,3-2.8S-43.8-5.4-43.8-3.9
		"/>
</g>
</svg>
