<?xml version="1.0" encoding="UTF-8"?>
<svg width="25px" height="25px" viewBox="0 0 25 25" version="1.1" xmlns="http://www.w3.org/2000/svg" xmlns:xlink="http://www.w3.org/1999/xlink">
    <!-- Generator: Sketch 48.2 (47327) - http://www.bohemiancoding.com/sketch -->
    <title>LOGO</title>
    <desc>Created with Sketch.</desc>
    <defs></defs>
    <g id="側邊欄---已登入" stroke="none" stroke-width="1" fill="none" fill-rule="evenodd" transform="translate(-188.000000, -50.000000)" opacity="0.3">
        <g id="側邊欄" transform="translate(0.000000, 33.000000)" fill="#FFFFFF">
            <g id="LOGO" transform="translate(188.000000, 17.000000)">
                <path d="M3,7.3791691 L3,15.6208309 C3,16.382559 2.32835148,17 1.5,17 C0.671535862,17 0,16.382559 0,15.6208309 L0,7.3791691 C0,6.61744101 0.671535862,6 1.5,6 C2.32835148,6 3,6.61744101 3,7.3791691" id="Fill-1"></path>
                <path d="M18,11.4594127 L18,23.5405873 C18,24.3466347 17.3284389,25 16.5000563,25 C15.6715611,25 15,24.3466347 15,23.5405873 L15,11.4594127 C15,10.6533653 15.6715611,10 16.5000563,10 C17.3284389,10 18,10.6533653 18,11.4594127" id="Fill-4"></path>
                <path d="M25,7.3791691 L25,15.6208309 C25,16.382559 24.3284389,17 23.5000563,17 C22.6715611,17 22,16.382559 22,15.6208309 L22,7.3791691 C22,6.61744101 22.6715611,6 23.5000563,6 C24.3284389,6 25,6.61744101 25,7.3791691" id="Fill-7"></path>
                <path d="M10,1.45931371 L10,13.5406863 C10,14.3466299 9.32843892,15 8.50005633,15 C7.67156108,15 7,14.3466299 7,13.5406863 L7,1.45931371 C7,0.653260457 7.67156108,0 8.50005633,0 C9.32843892,0 10,0.653260457 10,1.45931371" id="Fill-9"></path>
            </g>
        </g>
    </g>
</svg>