<?xml version="1.0" encoding="UTF-8"?>
<svg width="13px" height="15px" viewBox="0 0 13 15" version="1.1" xmlns="http://www.w3.org/2000/svg" xmlns:xlink="http://www.w3.org/1999/xlink">
    <!-- Generator: Sketch 48.2 (47327) - http://www.bohemiancoding.com/sketch -->
    <title>Icon</title>
    <desc>Created with Sketch.</desc>
    <defs></defs>
    <g id="內頁｜起始畫面" stroke="none" stroke-width="1" fill="none" fill-rule="evenodd" transform="translate(-306.000000, -294.000000)">
        <g id="視窗｜課程內頁" transform="translate(185.000000, 0.000000)" fill="#4A4A4A">
            <g id="左側｜基本資訊" transform="translate(55.000000, 0.000000)">
                <g id="檢視大綱" transform="translate(50.000000, 286.000000)">
                    <path d="M25.9888758,20.0453622 L18.4703573,20.0453622 L18.4703573,15.9025051 L25.9888758,15.9025051 L25.9888758,20.0453622 Z M22.1759259,9.31818182 C22.554716,9.31818182 22.8621399,9.61279545 22.8621399,9.97727273 C22.8621399,10.34175 22.554716,10.6363636 22.1759259,10.6363636 C21.7971358,10.6363636 21.4897119,10.34175 21.4897119,9.97727273 C21.4897119,9.61279545 21.7971358,9.31818182 22.1759259,9.31818182 L22.1759259,9.31818182 Z M26.9794239,9.31818182 L24.1083045,9.31818182 C23.8248981,8.55231818 23.0714352,8 22.1759259,8 C21.2811029,8 20.5269537,8.55231818 20.2435473,9.31818182 L17.372428,9.31818182 C16.6148477,9.31818182 16,9.90872727 16,10.6363636 L16,21.1818182 C16,21.9101136 16.6148477,22.5 17.372428,22.5 L26.9794239,22.5 C27.7376903,22.5 28.3518519,21.9101136 28.3518519,21.1818182 L28.3518519,10.6363636 C28.3518519,9.90872727 27.7376903,9.31818182 26.9794239,9.31818182 L26.9794239,9.31818182 Z" id="Icon"></path>
                </g>
            </g>
        </g>
    </g>
</svg>