<?xml version="1.0" encoding="UTF-8"?>
<svg width="14px" height="14px" viewBox="0 0 14 14" version="1.1" xmlns="http://www.w3.org/2000/svg" xmlns:xlink="http://www.w3.org/1999/xlink">
    <!-- Generator: Sketch 48.2 (47327) - http://www.bohemiancoding.com/sketch -->
    <title>Shape</title>
    <desc>Created with Sketch.</desc>
    <defs></defs>
    <g id="課程（有心得）-@-課程列表" stroke="none" stroke-width="1" fill="none" fill-rule="evenodd" transform="translate(-612.000000, -45.000000)">
        <path d="M613.555556,45 C612.7,45 612,45.6937498 612,46.5416662 L612,57.3333297 C612,58.1812461 612.7,58.8749959 613.555556,58.8749959 L624.444444,58.8749959 C625.3,58.8749959 626,58.1812461 626,57.3333297 L626,46.5416662 C626,45.6937498 625.3,45 624.444444,45 L613.555556,45 Z M614.333333,49.0468738 L614.333333,47.3124993 L621.333333,47.3124993 L621.333333,49.0468738 L614.333333,49.0468738 Z M621.333333,52.5156228 L614.333333,52.5156228 L614.333333,50.7812483 L621.333333,50.7812483 L621.333333,52.5156228 L621.333333,52.5156228 Z M621.333333,55.9843717 L614.333333,55.9843717 L614.333333,54.2499973 L621.333333,54.2499973 L621.333333,55.9843717 L621.333333,55.9843717 Z" id="Shape" fill="#9B9B9B"></path>
    </g>
</svg>