<?xml version="1.0" encoding="UTF-8"?>
<svg width="24px" height="24px" viewBox="0 0 24 24" version="1.1" xmlns="http://www.w3.org/2000/svg" xmlns:xlink="http://www.w3.org/1999/xlink">
    <!-- Generator: Sketch 48.2 (47327) - http://www.bohemiancoding.com/sketch -->
    <title>icon</title>
    <desc>Created with Sketch.</desc>
    <defs></defs>
    <g id="註冊｜輸入系所" stroke="none" stroke-width="1" fill="none" fill-rule="evenodd" transform="translate(-199.000000, -836.000000)">
        <g id="左側｜登入帳號" transform="translate(170.000000, 812.000000)" fill-rule="nonzero">
            <g id="icon" transform="translate(29.000000, 24.000000)">
                <path d="M22.6754774,24 C23.4068843,24 24,23.4068889 24,22.6753014 L24,1.32460548 C24,0.592924852 23.4069774,0 22.6754774,0 L1.32461576,0 C0.592929454,0 0,0.592924852 0,1.32460548 L0,22.6753014 C0,23.4067958 0.592836328,24 1.32461576,24 L22.6754774,24 Z" id="Blue_1_" fill="#3B5998"></path>
                <path d="M16.1399993,24 L16.1399993,14.877031 L19.3831124,14.877031 L19.8687226,11.3216481 L16.1399993,11.3216481 L16.1399993,9.05176078 C16.1399993,8.02239539 16.4427312,7.32091684 18.0060552,7.32091684 L20,7.32009415 L20,4.14013117 C19.6551548,4.09680294 18.4715284,4 17.0944711,4 C14.2196318,4 12.251439,5.65689344 12.251439,8.69965036 L12.251439,11.3216481 L9,11.3216481 L9,14.877031 L12.251439,14.877031 L12.251439,24 L16.1399993,24 Z" id="f" fill="#FFFFFF"></path>
            </g>
        </g>
    </g>
</svg>