<?xml version="1.0" standalone="no"?>
<!DOCTYPE svg PUBLIC "-//W3C//DTD SVG 20010904//EN"
 "http://www.w3.org/TR/2001/REC-SVG-20010904/DTD/svg10.dtd">
<svg version="1.0" xmlns="http://www.w3.org/2000/svg"
 width="567.000000pt" height="567.000000pt" viewBox="0 0 567.000000 567.000000"
 preserveAspectRatio="xMidYMid meet">
<metadata>
Created by potrace 1.11, written by Peter Selinger 2001-2013
</metadata>
<g transform="translate(0.000000,567.000000) scale(0.100000,-0.100000)"
fill="#000000" stroke="none">
<path d="M1887 5560 c-93 -36 -164 -113 -188 -205 -15 -53 -15 -2736 0 -2783
42 -138 164 -224 307 -218 119 5 212 68 263 176 l26 55 0 1385 0 1385 -27 50
c-33 63 -85 115 -144 145 -64 31 -170 36 -237 10z"/>
<path d="M198 4130 c-26 -10 -62 -30 -80 -45 -41 -34 -91 -108 -105 -155 -6
-24 -9 -381 -8 -1045 l1 -1010 23 -50 c12 -27 44 -70 70 -95 157 -149 416 -90
492 113 l22 59 -1 1006 c0 899 -2 1010 -16 1037 -9 17 -16 35 -16 41 0 23 -85
106 -134 131 -68 34 -179 40 -248 13z"/>
<path d="M5237 4123 c-85 -40 -144 -107 -168 -194 -18 -68 -19 -1985 -1 -2054
76 -281 453 -311 576 -46 21 46 21 53 22 1046 1 667 -2 1015 -9 1045 -13 60
-68 141 -116 174 -87 60 -211 72 -304 29z"/>
<path d="M3579 3320 c-89 -31 -159 -101 -190 -193 -16 -48 -17 -144 -16 -1422
l2 -1370 25 -50 c72 -142 228 -207 380 -158 90 29 179 129 197 223 8 40 7
2702 -1 2745 -21 111 -109 201 -224 230 -69 18 -108 17 -173 -5z"/>
</g>
</svg>
